<svg width="49" height="49" viewBox="0 0 49 49" fill="none" xmlns="http://www.w3.org/2000/svg">
<g clip-path="url(#clip0_3025_495)">
<path d="M10.75 14.4448H12.75C13.8109 14.4448 14.8283 14.0234 15.5784 13.2733C16.3286 12.5231 16.75 11.5057 16.75 10.4448C16.75 9.91439 16.9607 9.40568 17.3358 9.03061C17.7109 8.65554 18.2196 8.44482 18.75 8.44482H30.75C31.2804 8.44482 31.7891 8.65554 32.1642 9.03061C32.5393 9.40568 32.75 9.91439 32.75 10.4448C32.75 11.5057 33.1714 12.5231 33.9216 13.2733C34.6717 14.0234 35.6891 14.4448 36.75 14.4448H38.75C39.8109 14.4448 40.8283 14.8663 41.5784 15.6164C42.3286 16.3665 42.75 17.384 42.75 18.4448V36.4448C42.75 37.5057 42.3286 38.5231 41.5784 39.2732C40.8283 40.0234 39.8109 40.4448 38.75 40.4448H10.75C9.68913 40.4448 8.67172 40.0234 7.92157 39.2732C7.17143 38.5231 6.75 37.5057 6.75 36.4448V18.4448C6.75 17.384 7.17143 16.3665 7.92157 15.6164C8.67172 14.8663 9.68913 14.4448 10.75 14.4448" stroke="black" stroke-width="2" stroke-linecap="round" stroke-linejoin="round"/>
<path d="M24.75 32.4448C28.0637 32.4448 30.75 29.7585 30.75 26.4448C30.75 23.1311 28.0637 20.4448 24.75 20.4448C21.4363 20.4448 18.75 23.1311 18.75 26.4448C18.75 29.7585 21.4363 32.4448 24.75 32.4448Z" stroke="black" stroke-width="2" stroke-linecap="round" stroke-linejoin="round"/>
</g>
<defs>
<clipPath id="clip0_3025_495">
<rect width="48" height="48" fill="white" transform="translate(0.75 0.444824)"/>
</clipPath>
</defs>
</svg>
