<svg width="49" height="49" viewBox="0 0 49 49" fill="none" xmlns="http://www.w3.org/2000/svg">
<g clip-path="url(#clip0_3025_346)">
<path d="M14.25 26.4448H12.25C10.0409 26.4448 8.25 28.2357 8.25 30.4448V36.4448C8.25 38.654 10.0409 40.4448 12.25 40.4448H14.25C16.4591 40.4448 18.25 38.654 18.25 36.4448V30.4448C18.25 28.2357 16.4591 26.4448 14.25 26.4448Z" stroke="black" stroke-width="2" stroke-linecap="round" stroke-linejoin="round"/>
<path d="M36.25 26.4448H34.25C32.0409 26.4448 30.25 28.2357 30.25 30.4448V36.4448C30.25 38.654 32.0409 40.4448 34.25 40.4448H36.25C38.4591 40.4448 40.25 38.654 40.25 36.4448V30.4448C40.25 28.2357 38.4591 26.4448 36.25 26.4448Z" stroke="black" stroke-width="2" stroke-linecap="round" stroke-linejoin="round"/>
<path d="M8.25 30.4448V24.4448C8.25 20.2014 9.93571 16.1317 12.9363 13.1311C15.9369 10.1305 20.0065 8.44482 24.25 8.44482C28.4935 8.44482 32.5631 10.1305 35.5637 13.1311C38.5643 16.1317 40.25 20.2014 40.25 24.4448V30.4448" stroke="black" stroke-width="2" stroke-linecap="round" stroke-linejoin="round"/>
</g>
<defs>
<clipPath id="clip0_3025_346">
<rect width="48" height="48" fill="white" transform="translate(0.25 0.444824)"/>
</clipPath>
</defs>
</svg>
